<?xml version="1.0" standalone="no"?>
<!DOCTYPE svg PUBLIC "-//W3C//DTD SVG 20010904//EN"
 "http://www.w3.org/TR/2001/REC-SVG-20010904/DTD/svg10.dtd">
<svg version="1.0" xmlns="http://www.w3.org/2000/svg"
 width="225.000000pt" height="225.000000pt" viewBox="0 0 225.000000 225.000000"
 preserveAspectRatio="xMidYMid meet">
<metadata>
Created by potrace 1.14, written by Peter Selinger 2001-2017
</metadata>
<g transform="translate(0.000000,225.000000) scale(0.100000,-0.100000)"
fill="#000000" stroke="none">
<path d="M508 1921 c-170 -56 -303 -201 -339 -371 -15 -72 -6 -202 19 -273 25
-71 111 -202 208 -317 106 -126 483 -502 496 -494 6 4 8 3 5 -3 -9 -14 29 -47
44 -37 7 4 10 3 6 -3 -4 -6 30 -44 76 -84 45 -41 84 -77 85 -81 8 -18 31 -2
155 110 370 331 661 646 760 824 48 87 67 157 67 253 0 280 -215 495 -494 495
-145 0 -252 -44 -352 -144 -34 -34 -75 -88 -91 -121 l-30 -59 -21 48 c-12 26
-26 45 -31 42 -5 -4 -13 -1 -17 5 -4 8 -3 9 4 5 32 -20 5 22 -52 78 -45 45
-87 75 -141 101 -73 35 -85 38 -189 42 -89 3 -122 0 -168 -16z m989 -51 c2
-25 -14 -35 -31 -21 -9 8 -21 8 -37 2 l-24 -10 25 -1 25 0 -25 -21 c-14 -11
-42 -27 -62 -37 -24 -10 -38 -24 -38 -35 0 -10 -4 -16 -9 -12 -18 10 8 70 44
101 55 49 130 68 132 34z m-1017 -45 c0 -34 1 -35 40 -35 54 0 51 -20 -2 -22
l-43 -1 43 -4 c23 -2 42 -8 42 -14 0 -5 -19 -10 -42 -11 l-43 -1 43 -4 c23 -2
42 -8 42 -14 0 -5 -19 -10 -42 -11 l-43 -1 43 -4 c54 -5 55 -23 1 -23 -41 0
-41 0 -39 -37 1 -21 2 -43 1 -49 -2 -18 -57 -37 -93 -32 -19 3 -42 -1 -54 -9
-20 -13 -22 -12 -20 4 0 10 5 21 9 24 5 3 2 13 -7 21 -8 9 -19 31 -24 49 -7
30 -4 42 35 105 33 56 52 75 81 87 60 25 72 22 72 -18z m420 -30 c0 -22 4 -25
35 -25 l35 0 0 -113 0 -112 -47 2 c-27 1 -76 2 -110 2 -56 1 -63 3 -63 21 0
17 -7 20 -40 20 l-40 0 0 115 0 115 115 0 115 0 0 -25z m587 -87 c-2 -13 -4
-3 -4 22 0 25 2 35 4 23 2 -13 2 -33 0 -45z m-86 -20 c27 -17 49 -33 49 -35 0
-2 -7 -20 -15 -40 -8 -19 -15 -46 -15 -59 0 -13 -2 -24 -5 -24 -12 0 -48 38
-62 65 -8 17 -24 39 -34 51 -16 17 -18 26 -10 47 14 35 33 34 92 -5z m464 -18
c12 -24 22 -30 47 -30 l31 0 -22 -24 c-17 -18 -22 -33 -19 -56 4 -25 2 -30
-11 -24 -21 10 -62 9 -85 -1 -16 -7 -18 -5 -11 23 5 24 2 35 -14 49 -28 23
-26 33 4 33 18 0 31 9 43 30 9 16 18 30 19 30 1 0 9 -13 18 -30z m-317 -169
c-34 -14 -105 -9 -136 9 -12 7 11 9 76 7 89 -2 92 -3 60 -16z m-605 -62 c25
-28 27 -35 27 -122 0 -74 -4 -98 -20 -124 -34 -56 -118 -56 -155 0 -19 30 -24
202 -6 236 16 28 68 52 101 45 14 -2 37 -18 53 -35z m-469 12 c12 -13 17 -32
15 -60 -2 -28 2 -46 16 -61 31 -35 28 -112 -7 -146 -24 -24 -35 -27 -95 -28
l-68 -1 -2 158 -3 157 63 0 c50 0 68 -4 81 -19z m126 -121 l0 -139 78 -3 c60
-2 77 -6 77 -18 0 -12 -17 -15 -95 -15 l-95 0 -3 158 c-2 152 -2 157 18 157
19 0 20 -6 20 -140z m588 123 c-2 -14 -15 -19 -53 -21 -64 -4 -92 -29 -101
-89 -13 -87 28 -153 96 -153 16 0 20 6 20 35 0 32 -2 35 -31 35 -24 0 -30 4
-27 18 3 13 13 17 48 17 l45 0 0 -70 0 -70 -51 1 c-95 3 -134 50 -134 161 1
76 13 105 56 134 40 26 137 27 132 2z m772 -93 c0 -79 0 -80 -25 -80 -25 0
-25 1 -25 80 0 79 0 80 25 80 25 0 25 -1 25 -80z m-480 30 c0 -18 -7 -20 -60
-20 -53 0 -60 2 -60 20 0 18 7 20 60 20 53 0 60 -2 60 -20z m350 -50 c0 -57
-1 -60 -25 -60 -24 0 -25 3 -25 60 0 57 1 60 25 60 24 0 25 -3 25 -60z m68
-12 c-3 -39 -6 -43 -30 -46 -27 -3 -28 -2 -28 42 0 45 1 46 31 46 29 0 30 -1
27 -42z m-298 -53 l0 -75 -120 0 -120 0 0 75 0 75 120 0 120 0 0 -75z m165 35
c0 -20 -6 -26 -27 -28 -25 -3 -28 0 -28 28 0 28 3 31 28 28 21 -2 27 -8 27
-28z m-23 -65 c-5 -27 -18 -33 -25 -12 -6 17 3 37 18 37 8 0 10 -9 7 -25z m63
-25 c1 -64 -19 -61 -23 3 -2 34 1 47 10 47 9 0 13 -16 13 -50z m65 5 c0 -53
-16 -61 -22 -11 -4 39 0 56 13 56 5 0 9 -20 9 -45z m67 -7 c-5 -73 -27 -76
-27 -4 0 44 3 56 16 56 12 0 14 -10 11 -52z m-337 -58 c0 -19 -7 -20 -120 -20
-113 0 -120 1 -120 20 0 19 7 20 120 20 113 0 120 -1 120 -20z m-180 -90 c0
-6 35 -10 85 -10 l85 0 0 -100 0 -100 -85 0 c-47 0 -85 -4 -85 -8 0 -5 -40 -9
-89 -10 l-89 0 -1 109 c-1 61 1 114 4 120 8 12 175 12 175 -1z m-730 -44 c0
-39 2 -44 20 -41 19 4 20 -2 20 -81 l0 -84 -80 0 c-73 0 -80 2 -80 20 0 14 -7
20 -22 20 -23 0 -23 2 -20 105 l3 105 80 0 79 0 0 -44z m284 -22 c35 -34 20
-44 -64 -44 -73 0 -80 2 -80 20 0 10 8 24 18 29 27 16 108 13 126 -5z m-102
-226 c3 -127 5 -143 21 -146 16 -3 17 9 17 142 0 139 1 146 20 146 19 0 20 -7
20 -135 0 -126 1 -136 20 -143 19 -7 19 -8 -5 -44 -16 -23 -31 -35 -40 -32 -7
3 -22 1 -31 -4 -15 -8 -23 -2 -45 33 -27 42 -27 45 -23 176 2 74 3 137 4 142
0 4 9 7 20 7 18 0 20 -8 22 -142z m746 25 c17 -23 15 -32 -5 -31 -10 0 -109
-2 -220 -6 -112 -3 -203 -2 -203 1 0 4 11 18 24 32 l25 26 183 -3 c157 -2 185
-5 196 -19z m-387 -163 c15 0 19 -8 19 -35 0 -29 -5 -37 -32 -51 -30 -16 -31
-18 -13 -25 19 -7 19 -8 1 -8 -14 -1 -6 -10 27 -32 26 -17 47 -35 47 -40 0 -5
-25 -9 -56 -9 l-56 0 4 45 c2 25 -1 45 -5 45 -10 0 -90 -61 -95 -72 -2 -5 -8
-8 -13 -8 -5 0 -9 34 -9 76 0 63 2 74 13 65 16 -13 28 -5 20 15 -3 8 -2 21 1
30 5 14 16 16 68 10 33 -3 69 -6 79 -6z"/>
<path d="M817 1780 c18 -4 39 -13 47 -19 12 -10 15 -9 13 8 -1 18 -8 21 -47
20 -43 -1 -44 -1 -13 -9z"/>
<path d="M780 1715 c0 -30 -25 -34 -40 -5 -9 17 -14 18 -30 7 -15 -9 -20 -23
-20 -59 l0 -48 96 0 95 0 -2 65 -2 65 -49 0 c-45 0 -48 -2 -48 -25z"/>
<path d="M900 1610 c0 -18 -7 -20 -65 -20 -37 0 -65 -4 -65 -10 0 -6 37 -10
90 -10 l90 0 0 30 c0 25 -4 30 -25 30 -18 0 -25 -5 -25 -20z"/>
<path d="M844 1432 c-25 -16 -33 -52 -30 -130 4 -90 14 -112 57 -112 49 0 59
21 59 124 0 77 -3 96 -18 109 -19 18 -49 22 -68 9z"/>
<path d="M370 1400 c0 -28 2 -30 39 -30 40 0 56 16 45 45 -4 10 -20 15 -45 15
-37 0 -39 -2 -39 -30z"/>
<path d="M370 1260 l0 -70 38 0 c55 0 82 23 82 69 0 49 -24 71 -78 71 l-42 0
0 -70z"/>
<path d="M1442 1276 l1 -44 43 21 c47 22 45 27 -19 55 l-27 12 2 -44z"/>
<path d="M690 875 c0 -11 -12 -15 -45 -15 -25 0 -45 -4 -45 -10 0 -5 23 -10
50 -10 47 0 50 2 50 25 0 14 -2 25 -5 25 -3 0 -5 -7 -5 -15z"/>
</g>
</svg>
